<svg width="16" height="12" viewBox="0 0 16 12" fill="none" xmlns="http://www.w3.org/2000/svg">
<path d="M14.5 0H1.50001C0.672854 0 0 0.672623 0 1.4995V10.4964C0 11.3233 0.672854 11.9959 1.50001 11.9959H14.5C15.3271 11.9959 16 11.3233 16 10.4964V1.4995C16 0.672623 15.3271 0 14.5 0ZM14.5 0.999653C14.5679 0.999653 14.6325 1.01374 14.6916 1.03835L8 6.83604L1.30833 1.03835C1.36742 1.01378 1.43204 0.999653 1.49998 0.999653H14.5ZM14.5 10.9962H1.50001C1.22414 10.9962 0.999996 10.7722 0.999996 10.4964V2.09449L7.67236 7.87523C7.76661 7.95673 7.8833 7.99726 8 7.99726C8.1167 7.99726 8.23339 7.95676 8.32764 7.87523L15 2.09449V10.4964C15 10.7722 14.7759 10.9962 14.5 10.9962Z" fill="#2196F3"/>
</svg>
